<svg width="150" height="150" viewBox="0 0 150 150" fill="none" xmlns="http://www.w3.org/2000/svg">
<g clip-path="url(#clip0_2161_2)">
<path d="M75 0C64.625 0 54.875 1.96628 45.75 5.89886C36.625 9.83145 28.6875 15.1685 21.9375 21.9101C15.1875 28.6517 9.84375 36.5793 5.90625 45.6929C1.96875 54.8065 0 64.5443 0 74.9064C0 84.2697 1.8125 93.4457 5.4375 102.434C9.0625 111.423 14.125 119.444 20.625 126.498C27.125 133.552 34.9375 139.232 44.0625 143.539C53.1875 147.846 63.1875 150 74.0625 150C76.6875 150 79.375 149.875 82.125 149.625C84.875 149.376 87.6875 148.939 90.5625 148.315C89.4375 142.697 89.8125 137.391 91.6875 132.397C93.5625 127.403 96.375 123.252 100.125 119.944C103.875 116.635 108.344 114.357 113.531 113.109C118.719 111.86 124.062 112.172 129.562 114.045C126.312 106.679 126.781 99.6255 130.969 92.8839C135.156 86.1423 141.375 82.6467 149.625 82.397C149.75 81.0237 149.844 79.7441 149.906 78.5581C149.969 77.372 150 76.0924 150 74.7191C150 64.4819 148.031 54.8377 144.094 45.7865C140.156 36.7353 134.812 28.8077 128.062 22.0037C121.313 15.1998 113.375 9.83145 104.25 5.89886C95.125 1.96628 85.375 0 75 0ZM63.75 89.8876C66.875 89.8876 69.5312 90.98 71.7188 93.1648C73.9062 95.3496 75 98.0025 75 101.124C75 104.245 73.9062 106.898 71.7188 109.082C69.5312 111.267 66.875 112.36 63.75 112.36C60.625 112.36 57.9688 111.267 55.7812 109.082C53.5938 106.898 52.5 104.245 52.5 101.124C52.5 98.0025 53.5938 95.3496 55.7812 93.1648C57.9688 90.98 60.625 89.8876 63.75 89.8876ZM48.75 52.4344C51.875 52.4344 54.5312 53.5268 56.7188 55.7116C58.9062 57.8964 60 60.5493 60 63.6704C60 66.7915 58.9062 69.4444 56.7188 71.6292C54.5312 73.814 51.875 74.9064 48.75 74.9064C45.625 74.9064 42.9688 73.814 40.7812 71.6292C38.5938 69.4444 37.5 66.7915 37.5 63.6704C37.5 60.5493 38.5938 57.8964 40.7812 55.7116C42.9688 53.5268 45.625 52.4344 48.75 52.4344ZM97.5 44.9438C99.625 44.9438 101.406 45.6617 102.844 47.0974C104.281 48.5331 105 50.3121 105 52.4344C105 54.5568 104.281 56.3358 102.844 57.7715C101.406 59.2072 99.625 59.9251 97.5 59.9251C95.375 59.9251 93.5938 59.2072 92.1562 57.7715C90.7188 56.3358 90 54.5568 90 52.4344C90 50.3121 90.7188 48.5331 92.1562 47.0974C93.5938 45.6617 95.375 44.9438 97.5 44.9438Z" fill="black"/>
</g>
<defs>
<clipPath id="clip0_2161_2">
<rect width="150" height="150" fill="white"/>
</clipPath>
</defs>
</svg>
